<svg width="262" height="116" viewBox="0 0 262 116" fill="none" xmlns="http://www.w3.org/2000/svg">
  <path fill-rule="evenodd" clip-rule="evenodd" d="M0 0V10.0049L0.631864 12L0.955936 14.7907L0.631864 16.7442L1.60408 18.9767L0.631864 22.0465V25.1163L0 25.2523V96H20.3184V73.1615L3.74285 64.7442L20.3184 71.9924V65.8605H35.2898C41.7864 65.8605 47.053 60.3629 47.053 53.5814V12.2791C47.053 5.49752 41.7864 0 35.2898 0H0ZM20.3184 50.2326C20.3184 50.8491 20.7971 51.3488 21.3877 51.3488H24.0612C27.0142 51.3488 29.4081 48.8499 29.4081 45.7674V20.093C29.4081 17.0105 27.0142 14.5116 24.0612 14.5116H21.3877C20.7971 14.5116 20.3184 15.0114 20.3184 15.6279V21.4046L19.5163 21.4884L19.7837 22.8837L19.249 24.8372L20.3184 24.2283V40.6772L8.5551 34.0465L18.7035 40.1907L9.62448 44.093L19.1922 40.4865L20.3184 41.1684V50.2326ZM34.7551 21.7674L36.3592 10.8837V12.8372L37.4285 10.0465L34.7551 21.7674ZM136.882 0L133.673 4.74419L135.662 0H127.257V52.2218L135.812 57.4884L127.257 53.3667V96H145.437V54.433L148.466 65.6456L171.637 78.4186L148.679 66.4365L150.444 72.9693L156.933 76.4651L150.579 73.47L156.665 96H174.845V48L173.241 45.2093L174.31 38.2326L173.775 35.7209L174.845 34.4806V10.5209L166.557 21.7674L174.845 9.8206V0H156.665V45.2093L152.415 28.0982L151.319 27.9074V26.233L150.517 24.5586V22.6051L149.715 21.2097L150.037 18.5205L145.437 0H136.882ZM179.123 61.507V67.617L186.876 76.186L179.123 68.7319V96H210.669V86.4H198.372L198.639 48H209.065V38.4H198.906L199.069 20.8275L196.233 24L199.079 19.7552L199.083 19.4091L191.421 27.907L199.092 18.3977L199.174 9.6H200.617L200.243 9.2093L201.312 8.09302L203.986 9.2093L206.125 8.65116L207.034 9.6H208.531V0H179.123V40.186L179.657 42.9767L179.39 45.4884L179.925 52.4651L179.39 55.5349L179.925 60.8372L179.123 61.507ZM214.947 54.52V0H250.237C256.733 0 262 5.49746 262 12.2791V40.4473L253.178 37.1163L262 41.0351V43.7684C262 47.9498 259.998 51.6432 256.939 53.8605C260.104 56.101 262 59.8335 262 63.8255V96H244.355V68.3721C244.355 64.9813 241.722 62.2325 238.473 62.2325H236.335C235.744 62.2325 235.265 62.7323 235.265 63.3488V80.3721L232.549 83.1628L230.72 79.5349L232.324 83.4418L230.988 85.1163L232.549 84.1384L235.265 90.9767V96H214.947V69.7674L215.579 69.6314V66.5617L216.551 63.4919L215.579 61.2593L215.903 59.3059L215.579 56.5152L214.947 54.52ZM236.335 47.7209C235.744 47.7209 235.265 47.2211 235.265 46.6046V41.5814L234.731 37.6744L224.571 48.2791L234.731 36.2791L232.859 36L235.265 35.1628V20.126L234.463 22.0465L234.998 19.5349L234.731 18.1395L235.265 17.3023V15.6279C235.265 15.0114 235.744 14.5116 236.335 14.5116H239.008C241.961 14.5116 244.355 17.0104 244.355 20.093V42.1395C244.355 45.2221 241.961 47.7209 239.008 47.7209H236.335ZM256.939 65.3023L258.543 76.186L255.87 64.4651L256.939 67.2558V65.3023ZM232.859 84L235.265 82.4372V89.8077L232.859 84ZM115.264 0.746056L113.088 1.39493V0.557719L109.88 1.39493L111.651 0.00822508C111.507 0.00275747 111.362 0 111.217 0H87.6901C81.1934 0 75.9268 5.49746 75.9268 12.2791V83.7209C75.9268 90.5024 81.1934 96 87.6901 96H111.217C113.342 96 115.336 95.4115 117.057 94.3823L118.258 79.8139L118.056 93.7125C121.037 91.485 122.98 87.8398 122.98 83.7209V42.0597L110.147 51.6279L122.98 40.551V12.2791C122.98 6.98193 119.767 2.46829 115.264 0.746056ZM94.9084 18.9767C94.9084 17.1274 96.3448 15.6279 98.1166 15.6279H100.79C102.562 15.6279 103.998 17.1274 103.998 18.9767V58.6046L105.335 58.0465L104.533 60.5581L105.335 61.9535L103.998 64.4651V77.0232C103.998 78.8728 102.562 80.3721 100.79 80.3721H98.1166C96.3448 80.3721 94.9084 78.8728 94.9084 77.0232V64.6428L89.8288 72.8372L94.9084 63.2145V39.7369L86.086 30.9767L94.9084 38.389V18.9767ZM51.3303 0H59.9259L57.5279 7.70369H51.3303V0ZM51.3303 27.6145V12.7259L55.0796 15.5694L51.3303 27.6145ZM51.3303 28.1354V55.7325L55.5957 55.3542L51.3303 55.9311V62.4053L54.1376 65.3476L51.3303 62.5792V96H54.8844L56.9446 84.2791L55.6078 96H58.014L59.0833 92.6511L58.7456 96H71.6486V44.3931L70.0446 49.6744L71.6486 39.7347V39.3172L62.0242 46.2749L71.6486 38.8547V28.1354L61.4895 20.4306L51.3303 28.1354ZM61.2221 68.6512L65.2323 77.0232L67.3711 78.1395L65.4997 76.7442L61.2221 68.6512ZM71.6486 12.7259V27.6145L67.8993 15.5694L71.6486 12.7259ZM71.6486 7.70369V0H63.0531L65.451 7.70369H71.6486ZM55.876 3.62732L52.9352 1.67383L53.2026 2.79011L55.876 3.62732Z" fill="white"/>
  <path d="M36 108 L52 112 L210 112 L226 108 L210 104 L52 104 Z" fill="#ffffff"/>
  <text x="131" y="111" font-family="Arial, Helvetica, sans-serif" font-size="11" font-weight="700" fill="#000" text-anchor="middle" letter-spacing="0.6">
    Interactive Map
  </text>
</svg>